<svg xmlns="http://www.w3.org/2000/svg" width="15" height="15" fill="none" viewBox="0 0 15 15">
  <path fill="#D12628" d="M14.167 10.417a9.467 9.467 0 0 1-2.975-.475.85.85 0 0 0-.85.2l-1.834 1.833a12.538 12.538 0 0 1-5.491-5.492L4.85 4.642a.8.8 0 0 0 .208-.834A9.467 9.467 0 0 1 4.583.833.836.836 0 0 0 3.75 0H.833A.836.836 0 0 0 0 .833C0 8.658 6.342 15 14.167 15a.836.836 0 0 0 .833-.833V11.25a.836.836 0 0 0-.833-.833ZM13.333 7.5H15A7.5 7.5 0 0 0 7.5 0v1.667A5.829 5.829 0 0 1 13.333 7.5ZM10 7.5h1.667c0-2.3-1.867-4.167-4.167-4.167V5C8.883 5 10 6.117 10 7.5Z"/>
</svg>
